<svg width="51" height="24" viewBox="0 0 51 24" fill="none" xmlns="http://www.w3.org/2000/svg">
<rect x="0.5" y="0.5" width="50" height="23" rx="11.5" fill="#222426"/>
<rect x="0.5" y="0.5" width="50" height="23" rx="11.5" stroke="#343A40"/>
<circle cx="13" cy="12" r="8" fill="#888686"/>
<path d="M37 9.81818C38.2 9.81818 39.1818 10.8 39.1818 12C39.1818 13.2 38.2 14.1818 37 14.1818C35.8 14.1818 34.8182 13.2 34.8182 12C34.8182 10.8 35.8 9.81818 37 9.81818ZM37 8.36364C34.9927 8.36364 33.3636 9.99273 33.3636 12C33.3636 14.0073 34.9927 15.6364 37 15.6364C39.0073 15.6364 40.6364 14.0073 40.6364 12C40.6364 9.99273 39.0073 8.36364 37 8.36364ZM29.7273 12.7273H31.1818C31.5818 12.7273 31.9091 12.4 31.9091 12C31.9091 11.6 31.5818 11.2727 31.1818 11.2727H29.7273C29.3273 11.2727 29 11.6 29 12C29 12.4 29.3273 12.7273 29.7273 12.7273ZM42.8182 12.7273H44.2727C44.6727 12.7273 45 12.4 45 12C45 11.6 44.6727 11.2727 44.2727 11.2727H42.8182C42.4182 11.2727 42.0909 11.6 42.0909 12C42.0909 12.4 42.4182 12.7273 42.8182 12.7273ZM36.2727 4.72727V6.18182C36.2727 6.58182 36.6 6.90909 37 6.90909C37.4 6.90909 37.7273 6.58182 37.7273 6.18182V4.72727C37.7273 4.32727 37.4 4 37 4C36.6 4 36.2727 4.32727 36.2727 4.72727ZM36.2727 17.8182V19.2727C36.2727 19.6727 36.6 20 37 20C37.4 20 37.7273 19.6727 37.7273 19.2727V17.8182C37.7273 17.4182 37.4 17.0909 37 17.0909C36.6 17.0909 36.2727 17.4182 36.2727 17.8182ZM32.6291 6.60364C32.3455 6.32 31.88 6.32 31.6036 6.60364C31.32 6.88727 31.32 7.35273 31.6036 7.62909L32.3745 8.4C32.6582 8.68364 33.1236 8.68364 33.4 8.4C33.6764 8.11636 33.6836 7.65091 33.4 7.37455L32.6291 6.60364ZM41.6255 15.6C41.3418 15.3164 40.8764 15.3164 40.6 15.6C40.3164 15.8836 40.3164 16.3491 40.6 16.6255L41.3709 17.3964C41.6545 17.68 42.12 17.68 42.3964 17.3964C42.68 17.1127 42.68 16.6473 42.3964 16.3709L41.6255 15.6ZM42.3964 7.62909C42.68 7.34545 42.68 6.88 42.3964 6.60364C42.1127 6.32 41.6473 6.32 41.3709 6.60364L40.6 7.37455C40.3164 7.65818 40.3164 8.12364 40.6 8.4C40.8836 8.67636 41.3491 8.68364 41.6255 8.4L42.3964 7.62909ZM33.4 16.6255C33.6836 16.3418 33.6836 15.8764 33.4 15.6C33.1164 15.3164 32.6509 15.3164 32.3745 15.6L31.6036 16.3709C31.32 16.6545 31.32 17.12 31.6036 17.3964C31.8873 17.6727 32.3527 17.68 32.6291 17.3964L33.4 16.6255Z" fill="#E8C364"/>
</svg>
