<svg width="128" height="22" viewBox="0 0 128 22" fill="none" xmlns="http://www.w3.org/2000/svg">
<path d="M12.3047 11.2734C12.3047 12.1536 12.1953 12.9557 11.9766 13.6797C11.7578 14.3984 11.4245 15.0182 10.9766 15.5391C10.5339 16.0599 9.97135 16.4609 9.28906 16.7422C8.60677 17.0182 7.79948 17.1562 6.86719 17.1562C5.9349 17.1562 5.1276 17.0182 4.44531 16.7422C3.76302 16.4609 3.19792 16.0599 2.75 15.5391C2.30729 15.0182 1.97656 14.3958 1.75781 13.6719C1.53906 12.9479 1.42969 12.1432 1.42969 11.2578C1.42969 10.0755 1.6224 9.04688 2.00781 8.17188C2.39844 7.29167 2.9974 6.60938 3.80469 6.125C4.61198 5.64062 5.63802 5.39844 6.88281 5.39844C8.1224 5.39844 9.14062 5.64062 9.9375 6.125C10.7396 6.60938 11.3333 7.29167 11.7188 8.17188C12.1094 9.05208 12.3047 10.0859 12.3047 11.2734ZM3.96875 11.2734C3.96875 12.0703 4.06771 12.7578 4.26562 13.3359C4.46875 13.9089 4.78385 14.3516 5.21094 14.6641C5.63802 14.9714 6.1901 15.125 6.86719 15.125C7.55469 15.125 8.11198 14.9714 8.53906 14.6641C8.96615 14.3516 9.27604 13.9089 9.46875 13.3359C9.66667 12.7578 9.76562 12.0703 9.76562 11.2734C9.76562 10.0755 9.54167 9.13281 9.09375 8.44531C8.64583 7.75781 7.90885 7.41406 6.88281 7.41406C6.20052 7.41406 5.64323 7.57031 5.21094 7.88281C4.78385 8.1901 4.46875 8.63281 4.26562 9.21094C4.06771 9.78385 3.96875 10.4714 3.96875 11.2734ZM19.1253 8.10156C20.0576 8.10156 20.8076 8.35677 21.3753 8.86719C21.943 9.3724 22.2269 10.1849 22.2269 11.3047V17H19.8441V11.8984C19.8441 11.2734 19.7295 10.8021 19.5003 10.4844C19.2764 10.1667 18.9222 10.0078 18.4378 10.0078C17.7086 10.0078 17.2113 10.2552 16.9456 10.75C16.68 11.2448 16.5472 11.9583 16.5472 12.8906V17H14.1644V8.26562H15.9847L16.305 9.38281H16.4378C16.6253 9.08073 16.8571 8.83594 17.1331 8.64844C17.4144 8.46094 17.7243 8.32292 18.0628 8.23438C18.4066 8.14583 18.7607 8.10156 19.1253 8.10156ZM27.9616 8.10156C28.7689 8.10156 29.4642 8.25781 30.0475 8.57031C30.6308 8.8776 31.0814 9.32552 31.3991 9.91406C31.7168 10.5026 31.8756 11.2214 31.8756 12.0703V13.2266H26.2428C26.2689 13.8984 26.4694 14.4271 26.8444 14.8125C27.2246 15.1927 27.7506 15.3828 28.4225 15.3828C28.9798 15.3828 29.4902 15.3255 29.9538 15.2109C30.4173 15.0964 30.8939 14.9245 31.3834 14.6953V16.5391C30.9511 16.7526 30.498 16.9089 30.0241 17.0078C29.5553 17.1068 28.985 17.1562 28.3131 17.1562C27.4381 17.1562 26.6621 16.9948 25.985 16.6719C25.3131 16.349 24.7845 15.8568 24.3991 15.1953C24.0189 14.5339 23.8288 13.7005 23.8288 12.6953C23.8288 11.6745 24.0006 10.8255 24.3444 10.1484C24.6933 9.46615 25.1777 8.95573 25.7975 8.61719C26.4173 8.27344 27.1386 8.10156 27.9616 8.10156ZM27.9772 9.79688C27.5136 9.79688 27.1282 9.94531 26.8209 10.2422C26.5189 10.5391 26.3444 11.0052 26.2975 11.6406H29.6413C29.636 11.2865 29.5709 10.9714 29.4459 10.6953C29.3261 10.4193 29.1439 10.2005 28.8991 10.0391C28.6595 9.8776 28.3522 9.79688 27.9772 9.79688ZM35.8759 4.84375V7.67188C35.8759 8 35.8655 8.32552 35.8447 8.64844C35.8291 8.97135 35.8082 9.22135 35.7822 9.39844H35.8759C36.1051 9.03906 36.4176 8.73438 36.8134 8.48438C37.2093 8.22917 37.7223 8.10156 38.3525 8.10156C39.3317 8.10156 40.1259 8.48438 40.7353 9.25C41.3447 10.0156 41.6494 11.138 41.6494 12.6172C41.6494 13.612 41.5088 14.4479 41.2275 15.125C40.9463 15.7969 40.553 16.3047 40.0478 16.6484C39.5426 16.987 38.9567 17.1562 38.29 17.1562C37.6494 17.1562 37.1442 17.0417 36.7744 16.8125C36.4046 16.5833 36.1051 16.3255 35.8759 16.0391H35.7119L35.3134 17H33.4931V4.84375H35.8759ZM37.5869 10.0078C37.1702 10.0078 36.8395 10.0938 36.5947 10.2656C36.3499 10.4375 36.1702 10.6953 36.0556 11.0391C35.9463 11.3828 35.8864 11.8177 35.8759 12.3438V12.6016C35.8759 13.4505 36.0009 14.1016 36.2509 14.5547C36.5009 15.0026 36.9567 15.2266 37.6181 15.2266C38.1077 15.2266 38.4957 15 38.7822 14.5469C39.0739 14.0938 39.2197 13.4401 39.2197 12.5859C39.2197 11.7318 39.0739 11.0885 38.7822 10.6562C38.4905 10.224 38.0921 10.0078 37.5869 10.0078ZM51.2356 12.6172C51.2356 13.3464 51.1367 13.9922 50.9388 14.5547C50.746 15.1172 50.4622 15.5938 50.0872 15.9844C49.7174 16.3698 49.2695 16.6615 48.7434 16.8594C48.2226 17.0573 47.6341 17.1562 46.9778 17.1562C46.3632 17.1562 45.7981 17.0573 45.2825 16.8594C44.7721 16.6615 44.3268 16.3698 43.9466 15.9844C43.5716 15.5938 43.2799 15.1172 43.0716 14.5547C42.8684 13.9922 42.7669 13.3464 42.7669 12.6172C42.7669 11.6484 42.9388 10.8281 43.2825 10.1562C43.6263 9.48438 44.1158 8.97396 44.7513 8.625C45.3867 8.27604 46.1445 8.10156 47.0247 8.10156C47.8424 8.10156 48.5664 8.27604 49.1966 8.625C49.832 8.97396 50.3294 9.48438 50.6888 10.1562C51.0533 10.8281 51.2356 11.6484 51.2356 12.6172ZM45.1966 12.6172C45.1966 13.1901 45.2591 13.6719 45.3841 14.0625C45.5091 14.4531 45.7044 14.7474 45.97 14.9453C46.2356 15.1432 46.582 15.2422 47.0091 15.2422C47.4309 15.2422 47.7721 15.1432 48.0325 14.9453C48.2981 14.7474 48.4908 14.4531 48.6106 14.0625C48.7356 13.6719 48.7981 13.1901 48.7981 12.6172C48.7981 12.0391 48.7356 11.5599 48.6106 11.1797C48.4908 10.7943 48.2981 10.5052 48.0325 10.3125C47.7669 10.1198 47.4205 10.0234 46.9934 10.0234C46.3632 10.0234 45.9049 10.2396 45.6184 10.6719C45.3372 11.1042 45.1966 11.7526 45.1966 12.6172ZM54.6734 12.5391L51.8609 8.26562H54.5641L56.2594 11.0469L57.9703 8.26562H60.6734L57.8297 12.5391L60.8063 17H58.0953L56.2594 14.0078L54.4156 17H51.7125L54.6734 12.5391Z" fill="white"/>
</svg>
