<svg width="137" height="22" viewBox="0 0 137 22" fill="none" xmlns="http://www.w3.org/2000/svg">
<path d="M4.77832 16H3.13086V7.40039H0.205078V6.00586H7.69727V7.40039H4.77832V16ZM10.6709 8.43262V16H9.06445V8.43262H10.6709ZM9.87793 5.53418C10.124 5.53418 10.3359 5.60026 10.5137 5.73242C10.696 5.86458 10.7871 6.09245 10.7871 6.41602C10.7871 6.73503 10.696 6.96289 10.5137 7.09961C10.3359 7.23177 10.124 7.29785 9.87793 7.29785C9.62272 7.29785 9.40625 7.23177 9.22852 7.09961C9.05534 6.96289 8.96875 6.73503 8.96875 6.41602C8.96875 6.09245 9.05534 5.86458 9.22852 5.73242C9.40625 5.60026 9.62272 5.53418 9.87793 5.53418ZM21.5264 8.28906C22.374 8.28906 23.012 8.50781 23.4404 8.94531C23.8734 9.38281 24.0898 10.0846 24.0898 11.0508V16H22.4834V11.3379C22.4834 10.7637 22.3717 10.3307 22.1484 10.0391C21.9251 9.7474 21.5856 9.60156 21.1299 9.60156C20.4919 9.60156 20.0316 9.80664 19.749 10.2168C19.471 10.6224 19.332 11.2126 19.332 11.9873V16H17.7256V11.3379C17.7256 10.9551 17.6755 10.6361 17.5752 10.3809C17.4795 10.1211 17.3314 9.92741 17.1309 9.7998C16.9303 9.66764 16.6774 9.60156 16.3721 9.60156C15.93 9.60156 15.5768 9.70182 15.3125 9.90234C15.0527 10.1029 14.8659 10.3991 14.752 10.791C14.638 11.1784 14.5811 11.6546 14.5811 12.2197V16H12.9746V8.43262H14.2256L14.4512 9.45117H14.54C14.695 9.18685 14.8864 8.97038 15.1143 8.80176C15.3467 8.62858 15.6042 8.50098 15.8867 8.41895C16.1693 8.33236 16.4632 8.28906 16.7686 8.28906C17.3337 8.28906 17.8099 8.38932 18.1973 8.58984C18.5846 8.78581 18.874 9.08659 19.0654 9.49219H19.1885C19.4255 9.08203 19.7559 8.77897 20.1797 8.58301C20.6035 8.38704 21.0524 8.28906 21.5264 8.28906ZM27.6172 6.00586L27.7197 6.15625C27.6377 6.48893 27.5306 6.8444 27.3984 7.22266C27.2708 7.60091 27.1318 7.97917 26.9814 8.35742C26.8311 8.73568 26.6784 9.09342 26.5234 9.43066H25.3613C25.4251 9.16178 25.4912 8.87923 25.5596 8.58301C25.6279 8.28223 25.694 7.98145 25.7578 7.68066C25.8216 7.37533 25.8786 7.08138 25.9287 6.79883C25.9788 6.51172 26.0221 6.2474 26.0586 6.00586H27.6172ZM34.125 13.8398C34.125 14.3366 34.0042 14.7559 33.7627 15.0977C33.5212 15.4395 33.168 15.6992 32.7031 15.877C32.2428 16.0501 31.6777 16.1367 31.0078 16.1367C30.4792 16.1367 30.0234 16.098 29.6406 16.0205C29.2624 15.9476 28.9046 15.8337 28.5674 15.6787V14.291C28.9274 14.4596 29.3307 14.6055 29.7773 14.7285C30.2285 14.8516 30.6546 14.9131 31.0557 14.9131C31.5843 14.9131 31.9648 14.8311 32.1973 14.667C32.4297 14.4984 32.5459 14.2751 32.5459 13.9971C32.5459 13.833 32.498 13.6872 32.4023 13.5596C32.3112 13.4274 32.138 13.293 31.8828 13.1562C31.6322 13.015 31.263 12.8464 30.7754 12.6504C30.2969 12.459 29.8936 12.2676 29.5654 12.0762C29.2373 11.8848 28.9889 11.6546 28.8203 11.3857C28.6517 11.1123 28.5674 10.7637 28.5674 10.3398C28.5674 9.66992 28.8317 9.16178 29.3604 8.81543C29.8936 8.46452 30.5977 8.28906 31.4727 8.28906C31.9375 8.28906 32.375 8.33691 32.7852 8.43262C33.1999 8.52376 33.6055 8.6582 34.002 8.83594L33.4961 10.0459C33.1543 9.89551 32.8102 9.77246 32.4639 9.67676C32.1221 9.5765 31.7734 9.52637 31.418 9.52637C31.0033 9.52637 30.6865 9.59017 30.4678 9.71777C30.2536 9.84538 30.1465 10.0277 30.1465 10.2646C30.1465 10.4424 30.1989 10.5928 30.3037 10.7158C30.4085 10.8389 30.5885 10.9619 30.8438 11.085C31.1035 11.208 31.4635 11.3607 31.9238 11.543C32.375 11.7161 32.7646 11.8984 33.0928 12.0898C33.4255 12.2767 33.6807 12.5068 33.8584 12.7803C34.0361 13.0537 34.125 13.4069 34.125 13.8398ZM51.4814 6.00586L48.8701 16H47.0791L45.4111 10.0117C45.3701 9.86589 45.3245 9.69271 45.2744 9.49219C45.2243 9.29167 45.1742 9.08659 45.124 8.87695C45.0785 8.66732 45.0374 8.47591 45.001 8.30273C44.9691 8.125 44.9463 7.98828 44.9326 7.89258C44.9235 7.98828 44.903 8.12272 44.8711 8.2959C44.8392 8.46908 44.8005 8.66048 44.7549 8.87012C44.7139 9.0752 44.6683 9.28027 44.6182 9.48535C44.568 9.68587 44.5225 9.86361 44.4814 10.0186L42.8408 16H41.0566L38.4521 6.00586H40.0996L41.542 11.8643C41.5876 12.0511 41.6331 12.2539 41.6787 12.4727C41.7288 12.6868 41.7744 12.9033 41.8154 13.1221C41.861 13.3408 41.902 13.555 41.9385 13.7646C41.9749 13.9697 42.0046 14.1566 42.0273 14.3252C42.0501 14.152 42.0798 13.9606 42.1162 13.751C42.1527 13.5368 42.1914 13.3203 42.2324 13.1016C42.278 12.8783 42.3236 12.6641 42.3691 12.459C42.4193 12.2539 42.4694 12.0693 42.5195 11.9053L44.1465 6.00586H45.7461L47.4072 11.9258C47.4574 12.0944 47.5052 12.2835 47.5508 12.4932C47.6009 12.7028 47.6488 12.917 47.6943 13.1357C47.7399 13.3545 47.7809 13.5664 47.8174 13.7715C47.8538 13.9766 47.8835 14.1611 47.9062 14.3252C47.9382 14.1019 47.9792 13.8467 48.0293 13.5596C48.0794 13.2725 48.1364 12.9808 48.2002 12.6846C48.264 12.3883 48.3278 12.1149 48.3916 11.8643L49.8271 6.00586H51.4814ZM59.4316 12.1992C59.4316 12.8281 59.3496 13.3864 59.1855 13.874C59.0215 14.3617 58.7822 14.7741 58.4678 15.1113C58.1533 15.444 57.7751 15.6992 57.333 15.877C56.891 16.0501 56.3919 16.1367 55.8359 16.1367C55.3164 16.1367 54.8402 16.0501 54.4072 15.877C53.9743 15.6992 53.5983 15.444 53.2793 15.1113C52.9648 14.7741 52.721 14.3617 52.5479 13.874C52.3747 13.3864 52.2881 12.8281 52.2881 12.1992C52.2881 11.3652 52.4316 10.6589 52.7188 10.0801C53.0104 9.49674 53.4251 9.05241 53.9629 8.74707C54.5007 8.44173 55.141 8.28906 55.8838 8.28906C56.5811 8.28906 57.1963 8.44173 57.7295 8.74707C58.2627 9.05241 58.6797 9.49674 58.9805 10.0801C59.2812 10.6634 59.4316 11.3698 59.4316 12.1992ZM53.9424 12.1992C53.9424 12.7507 54.0085 13.2223 54.1406 13.6143C54.2773 14.0062 54.487 14.307 54.7695 14.5166C55.0521 14.7217 55.4167 14.8242 55.8633 14.8242C56.3099 14.8242 56.6745 14.7217 56.957 14.5166C57.2396 14.307 57.4469 14.0062 57.5791 13.6143C57.7113 13.2223 57.7773 12.7507 57.7773 12.1992C57.7773 11.6478 57.7113 11.1807 57.5791 10.7979C57.4469 10.4105 57.2396 10.1165 56.957 9.91602C56.6745 9.71094 56.3076 9.6084 55.8564 9.6084C55.1911 9.6084 54.7057 9.83171 54.4004 10.2783C54.0951 10.7249 53.9424 11.3652 53.9424 12.1992ZM65.1123 8.28906C65.2399 8.28906 65.3789 8.2959 65.5293 8.30957C65.6797 8.32324 65.8096 8.34147 65.9189 8.36426L65.7686 9.86816C65.6729 9.84082 65.5544 9.82031 65.4131 9.80664C65.2764 9.79297 65.1533 9.78613 65.0439 9.78613C64.7568 9.78613 64.4834 9.83398 64.2236 9.92969C63.9639 10.0208 63.7337 10.1621 63.5332 10.3535C63.3327 10.5404 63.1755 10.7751 63.0615 11.0576C62.9476 11.3402 62.8906 11.6683 62.8906 12.042V16H61.2773V8.43262H62.5352L62.7539 9.76562H62.8291C62.9795 9.49674 63.1663 9.25065 63.3896 9.02734C63.613 8.80404 63.8682 8.6263 64.1553 8.49414C64.4469 8.35742 64.766 8.28906 65.1123 8.28906ZM68.9268 5.36328V10.5039C68.9268 10.7363 68.9176 10.9915 68.8994 11.2695C68.8812 11.543 68.863 11.8005 68.8447 12.042H68.8789C68.9974 11.8825 69.1387 11.6956 69.3027 11.4814C69.4714 11.2673 69.6309 11.0804 69.7812 10.9209L72.0918 8.43262H73.9375L70.9092 11.6865L74.1357 16H72.249L69.8291 12.6777L68.9268 13.4502V16H67.3203V5.36328H68.9268ZM80.4316 13.8398C80.4316 14.3366 80.3109 14.7559 80.0693 15.0977C79.8278 15.4395 79.4746 15.6992 79.0098 15.877C78.5495 16.0501 77.9844 16.1367 77.3145 16.1367C76.7858 16.1367 76.3301 16.098 75.9473 16.0205C75.569 15.9476 75.2113 15.8337 74.874 15.6787V14.291C75.234 14.4596 75.6374 14.6055 76.084 14.7285C76.5352 14.8516 76.9613 14.9131 77.3623 14.9131C77.891 14.9131 78.2715 14.8311 78.5039 14.667C78.7363 14.4984 78.8525 14.2751 78.8525 13.9971C78.8525 13.833 78.8047 13.6872 78.709 13.5596C78.6178 13.4274 78.4447 13.293 78.1895 13.1562C77.9388 13.015 77.5697 12.8464 77.082 12.6504C76.6035 12.459 76.2002 12.2676 75.8721 12.0762C75.5439 11.8848 75.2956 11.6546 75.127 11.3857C74.9583 11.1123 74.874 10.7637 74.874 10.3398C74.874 9.66992 75.1383 9.16178 75.667 8.81543C76.2002 8.46452 76.9043 8.28906 77.7793 8.28906C78.2441 8.28906 78.6816 8.33691 79.0918 8.43262C79.5065 8.52376 79.9121 8.6582 80.3086 8.83594L79.8027 10.0459C79.4609 9.89551 79.1169 9.77246 78.7705 9.67676C78.4287 9.5765 78.0801 9.52637 77.7246 9.52637C77.3099 9.52637 76.9932 9.59017 76.7744 9.71777C76.5602 9.84538 76.4531 10.0277 76.4531 10.2646C76.4531 10.4424 76.5055 10.5928 76.6104 10.7158C76.7152 10.8389 76.8952 10.9619 77.1504 11.085C77.4102 11.208 77.7702 11.3607 78.2305 11.543C78.6816 11.7161 79.0713 11.8984 79.3994 12.0898C79.7321 12.2767 79.9873 12.5068 80.165 12.7803C80.3428 13.0537 80.4316 13.4069 80.4316 13.8398ZM86.0508 8.28906C86.9486 8.28906 87.6686 8.61719 88.2109 9.27344C88.7578 9.92969 89.0312 10.9049 89.0312 12.1992C89.0312 13.056 88.9036 13.7783 88.6484 14.3662C88.3978 14.9495 88.0446 15.3916 87.5889 15.6924C87.1377 15.9886 86.6113 16.1367 86.0098 16.1367C85.627 16.1367 85.2943 16.0866 85.0117 15.9863C84.7292 15.8861 84.4876 15.7562 84.2871 15.5967C84.0866 15.4326 83.918 15.2549 83.7812 15.0635H83.6855C83.7083 15.2458 83.7288 15.4486 83.7471 15.6719C83.7699 15.8906 83.7812 16.0911 83.7812 16.2734V19.3564H82.168V8.43262H83.4805L83.7061 9.47852H83.7812C83.9225 9.26432 84.0934 9.06608 84.2939 8.88379C84.499 8.7015 84.7451 8.55794 85.0322 8.45312C85.3239 8.34375 85.6634 8.28906 86.0508 8.28906ZM85.6201 9.60156C85.1781 9.60156 84.8226 9.69043 84.5537 9.86816C84.2894 10.0413 84.0957 10.3034 83.9727 10.6543C83.8542 11.0052 83.7904 11.445 83.7812 11.9736V12.1992C83.7812 12.7598 83.8382 13.236 83.9521 13.6279C84.0706 14.0153 84.2643 14.3115 84.5332 14.5166C84.8066 14.7171 85.1758 14.8174 85.6406 14.8174C86.0326 14.8174 86.3561 14.7103 86.6113 14.4961C86.8711 14.2819 87.0648 13.9766 87.1924 13.5801C87.32 13.1836 87.3838 12.7165 87.3838 12.1787C87.3838 11.363 87.238 10.7295 86.9463 10.2783C86.6592 9.82715 86.2171 9.60156 85.6201 9.60156ZM93.8574 8.28906C94.8145 8.28906 95.5368 8.50098 96.0244 8.9248C96.5166 9.34863 96.7627 10.0094 96.7627 10.9072V16H95.6211L95.3135 14.9268H95.2588C95.0446 15.2002 94.8236 15.4258 94.5957 15.6035C94.3678 15.7812 94.1035 15.9134 93.8027 16C93.5065 16.0911 93.1442 16.1367 92.7158 16.1367C92.2646 16.1367 91.8613 16.0547 91.5059 15.8906C91.1504 15.722 90.8701 15.4668 90.665 15.125C90.46 14.7832 90.3574 14.3503 90.3574 13.8262C90.3574 13.0469 90.6468 12.4613 91.2256 12.0693C91.8089 11.6774 92.6885 11.4609 93.8643 11.4199L95.1768 11.3721V10.9756C95.1768 10.4515 95.0537 10.0778 94.8076 9.85449C94.5661 9.63118 94.2243 9.51953 93.7822 9.51953C93.404 9.51953 93.0371 9.57422 92.6816 9.68359C92.3262 9.79297 91.9798 9.92741 91.6426 10.0869L91.123 8.95215C91.4922 8.75618 91.9115 8.59668 92.3809 8.47363C92.8548 8.35059 93.347 8.28906 93.8574 8.28906ZM95.1699 12.3838L94.1924 12.418C93.3903 12.4453 92.8275 12.582 92.5039 12.8281C92.1803 13.0742 92.0186 13.4115 92.0186 13.8398C92.0186 14.2135 92.1302 14.487 92.3535 14.6602C92.5768 14.8288 92.8708 14.9131 93.2354 14.9131C93.7913 14.9131 94.2516 14.7559 94.6162 14.4414C94.9854 14.1224 95.1699 13.6553 95.1699 13.04V12.3838ZM102.061 16.1367C101.345 16.1367 100.725 15.9977 100.201 15.7197C99.6771 15.4417 99.2738 15.0156 98.9912 14.4414C98.7087 13.8672 98.5674 13.138 98.5674 12.2539C98.5674 11.3333 98.7223 10.5814 99.0322 9.99805C99.3421 9.41471 99.7705 8.98405 100.317 8.70605C100.869 8.42806 101.5 8.28906 102.211 8.28906C102.662 8.28906 103.07 8.33464 103.435 8.42578C103.804 8.51237 104.116 8.61947 104.371 8.74707L103.893 10.0322C103.615 9.91829 103.33 9.82259 103.038 9.74512C102.746 9.66764 102.466 9.62891 102.197 9.62891C101.755 9.62891 101.386 9.72689 101.09 9.92285C100.798 10.1188 100.579 10.4105 100.434 10.7979C100.292 11.1852 100.222 11.666 100.222 12.2402C100.222 12.7962 100.295 13.2656 100.44 13.6484C100.586 14.0267 100.803 14.3138 101.09 14.5098C101.377 14.7012 101.73 14.7969 102.149 14.7969C102.564 14.7969 102.936 14.7467 103.264 14.6465C103.592 14.5462 103.902 14.4163 104.193 14.2568V15.6514C103.906 15.8154 103.599 15.9362 103.271 16.0137C102.942 16.0957 102.539 16.1367 102.061 16.1367ZM108.985 8.28906C109.66 8.28906 110.239 8.42806 110.722 8.70605C111.205 8.98405 111.576 9.37826 111.836 9.88867C112.096 10.3991 112.226 11.0098 112.226 11.7207V12.582H107.174C107.192 13.3158 107.388 13.8809 107.762 14.2773C108.14 14.6738 108.669 14.8721 109.348 14.8721C109.831 14.8721 110.264 14.8265 110.646 14.7354C111.034 14.6396 111.433 14.5007 111.843 14.3184V15.624C111.465 15.8018 111.079 15.9316 110.688 16.0137C110.296 16.0957 109.826 16.1367 109.279 16.1367C108.536 16.1367 107.882 15.9932 107.317 15.7061C106.757 15.4144 106.317 14.9814 105.998 14.4072C105.684 13.833 105.526 13.1198 105.526 12.2676C105.526 11.4199 105.67 10.6999 105.957 10.1074C106.244 9.51497 106.647 9.0638 107.167 8.75391C107.687 8.44401 108.293 8.28906 108.985 8.28906ZM108.985 9.49902C108.479 9.49902 108.069 9.66309 107.755 9.99121C107.445 10.3193 107.263 10.8001 107.208 11.4336H110.653C110.649 11.0553 110.585 10.7204 110.462 10.4287C110.343 10.137 110.161 9.90918 109.915 9.74512C109.674 9.58105 109.364 9.49902 108.985 9.49902Z" fill="white"/>
<g clip-path="url(#clip0_28_524)">
<path d="M123.58 7.32669L122.4 8.51336L129 15.1067L135.6 8.50669L134.42 7.32669L129 12.7467L123.58 7.32669Z" fill="white"/>
</g>
<defs>
<clipPath id="clip0_28_524">
<rect width="16" height="16" fill="white" transform="matrix(0 -1 1 0 121 19)"/>
</clipPath>
</defs>
</svg>
